<svg width="400" height="86" viewBox="0 0 400 86" fill="none" xmlns="http://www.w3.org/2000/svg">
<rect x="0.25" y="0.25" width="399.5" height="85.5" rx="5.75" stroke="#BCC2C7" stroke-width="0.5"/>
<path d="M250 31C250 27.6863 252.686 25 256 25H374C377.314 25 380 27.6863 380 31V55C380 58.3137 377.314 61 374 61H256C252.686 61 250 58.3137 250 55V31Z" fill="#ED1D4A"/>
<path d="M273.913 38.6V47H272.377V39.92H268.021V47H266.485V38.6H273.913ZM278.969 47.084C278.321 47.084 277.737 46.944 277.217 46.664C276.697 46.384 276.289 45.996 275.993 45.5C275.705 44.996 275.561 44.428 275.561 43.796C275.561 43.164 275.705 42.6 275.993 42.104C276.289 41.608 276.697 41.22 277.217 40.94C277.737 40.66 278.321 40.52 278.969 40.52C279.625 40.52 280.213 40.66 280.733 40.94C281.253 41.22 281.657 41.608 281.945 42.104C282.241 42.6 282.389 43.164 282.389 43.796C282.389 44.428 282.241 44.996 281.945 45.5C281.657 45.996 281.253 46.384 280.733 46.664C280.213 46.944 279.625 47.084 278.969 47.084ZM278.969 45.8C279.521 45.8 279.977 45.616 280.337 45.248C280.697 44.88 280.877 44.396 280.877 43.796C280.877 43.196 280.697 42.712 280.337 42.344C279.977 41.976 279.521 41.792 278.969 41.792C278.417 41.792 277.961 41.976 277.601 42.344C277.249 42.712 277.073 43.196 277.073 43.796C277.073 44.396 277.249 44.88 277.601 45.248C277.961 45.616 278.417 45.8 278.969 45.8ZM290.641 45.728V48.428H289.237V47H284.293V48.428H282.901V45.728H283.201C283.609 45.712 283.885 45.452 284.029 44.948C284.181 44.436 284.281 43.716 284.329 42.788L284.413 40.592H289.693V45.728H290.641ZM285.697 42.896C285.665 43.632 285.605 44.232 285.517 44.696C285.429 45.16 285.269 45.504 285.037 45.728H288.193V41.864H285.733L285.697 42.896ZM291.981 40.592H293.481V43.196H296.709V40.592H298.209V47H296.709V44.468H293.481V47H291.981V40.592ZM305.631 40.592V47H304.287V45.068H302.595L301.287 47H299.679L301.191 44.864C300.727 44.704 300.371 44.46 300.123 44.132C299.883 43.796 299.763 43.384 299.763 42.896C299.763 42.16 300.023 41.592 300.543 41.192C301.063 40.792 301.779 40.592 302.691 40.592H305.631ZM302.739 41.852C301.771 41.852 301.287 42.216 301.287 42.944C301.287 43.664 301.755 44.024 302.691 44.024H304.287V41.852H302.739ZM312.725 41.864H310.481V47H308.981V41.864H306.725V40.592H312.725V41.864ZM317.029 42.704C317.845 42.704 318.469 42.888 318.901 43.256C319.341 43.624 319.561 44.144 319.561 44.816C319.561 45.52 319.321 46.064 318.841 46.448C318.361 46.832 317.685 47.02 316.813 47.012L313.813 47V40.592H315.313V42.692L317.029 42.704ZM316.681 45.908C317.121 45.916 317.457 45.824 317.689 45.632C317.921 45.44 318.037 45.16 318.037 44.792C318.037 44.432 317.925 44.168 317.701 44C317.477 43.832 317.137 43.744 316.681 43.736L315.313 43.724V45.896L316.681 45.908ZM327.112 47.084C326.448 47.084 325.852 46.944 325.324 46.664C324.796 46.384 324.384 45.996 324.088 45.5C323.792 44.996 323.644 44.428 323.644 43.796C323.644 43.164 323.792 42.6 324.088 42.104C324.384 41.608 324.792 41.22 325.312 40.94C325.84 40.66 326.44 40.52 327.112 40.52C327.744 40.52 328.296 40.648 328.768 40.904C329.248 41.16 329.608 41.528 329.848 42.008L328.696 42.68C328.512 42.384 328.28 42.164 328 42.02C327.728 41.868 327.428 41.792 327.1 41.792C326.54 41.792 326.076 41.976 325.708 42.344C325.34 42.704 325.156 43.188 325.156 43.796C325.156 44.404 325.336 44.892 325.696 45.26C326.064 45.62 326.532 45.8 327.1 45.8C327.428 45.8 327.728 45.728 328 45.584C328.28 45.432 328.512 45.208 328.696 44.912L329.848 45.584C329.6 46.064 329.236 46.436 328.756 46.7C328.284 46.956 327.736 47.084 327.112 47.084ZM336.186 41.864H333.942V47H332.442V41.864H330.186V40.592H336.186V41.864ZM339.662 40.52C340.606 40.52 341.326 40.748 341.822 41.204C342.326 41.652 342.578 42.332 342.578 43.244V47H341.162V46.22C340.978 46.5 340.714 46.716 340.37 46.868C340.034 47.012 339.626 47.084 339.146 47.084C338.666 47.084 338.246 47.004 337.886 46.844C337.526 46.676 337.246 46.448 337.046 46.16C336.854 45.864 336.758 45.532 336.758 45.164C336.758 44.588 336.97 44.128 337.394 43.784C337.826 43.432 338.502 43.256 339.422 43.256H341.078V43.16C341.078 42.712 340.942 42.368 340.67 42.128C340.406 41.888 340.01 41.768 339.482 41.768C339.122 41.768 338.766 41.824 338.414 41.936C338.07 42.048 337.778 42.204 337.538 42.404L336.95 41.312C337.286 41.056 337.69 40.86 338.162 40.724C338.634 40.588 339.134 40.52 339.662 40.52ZM339.458 45.992C339.834 45.992 340.166 45.908 340.454 45.74C340.75 45.564 340.958 45.316 341.078 44.996V44.252H339.53C338.666 44.252 338.234 44.536 338.234 45.104C338.234 45.376 338.342 45.592 338.558 45.752C338.774 45.912 339.074 45.992 339.458 45.992ZM349.078 43.664C349.87 43.904 350.266 44.416 350.266 45.2C350.266 45.776 350.05 46.22 349.618 46.532C349.186 46.844 348.546 47 347.698 47H344.434V40.592H347.566C348.35 40.592 348.962 40.736 349.402 41.024C349.842 41.312 350.062 41.72 350.062 42.248C350.062 42.576 349.974 42.86 349.798 43.1C349.63 43.34 349.39 43.528 349.078 43.664ZM345.862 43.268H347.434C348.21 43.268 348.598 43 348.598 42.464C348.598 41.944 348.21 41.684 347.434 41.684H345.862V43.268ZM347.578 45.908C348.402 45.908 348.814 45.64 348.814 45.104C348.814 44.824 348.718 44.616 348.526 44.48C348.334 44.336 348.034 44.264 347.626 44.264H345.862V45.908H347.578ZM354.527 44.432H353.363V47H351.863V40.592H353.363V43.184H354.563L356.459 40.592H358.067L355.739 43.676L358.223 47H356.459L354.527 44.432ZM364.966 40.592L361.966 47.516C361.686 48.212 361.346 48.7 360.946 48.98C360.546 49.268 360.062 49.412 359.494 49.412C359.174 49.412 358.858 49.36 358.546 49.256C358.234 49.152 357.978 49.008 357.778 48.824L358.378 47.72C358.522 47.856 358.69 47.964 358.882 48.044C359.082 48.124 359.282 48.164 359.482 48.164C359.746 48.164 359.962 48.096 360.13 47.96C360.306 47.824 360.466 47.596 360.61 47.276L360.718 47.024L357.922 40.592H359.482L361.498 45.332L363.526 40.592H364.966Z" fill="white"/>
<path d="M20.6761 26.9119H23.8778V36H25.1108V26.9119H28.3125V25.8182H20.6761V26.9119ZM32.1506 36.1591C33.7017 36.1591 34.8352 35.3835 35.1932 34.2301L34.0597 33.9119C33.7614 34.7074 33.0703 35.1051 32.1506 35.1051C30.7734 35.1051 29.8239 34.2152 29.7692 32.5795H35.3125V32.0824C35.3125 29.2386 33.6222 28.2642 32.0312 28.2642C29.9631 28.2642 28.5909 29.8949 28.5909 32.2415C28.5909 34.5881 29.9432 36.1591 32.1506 36.1591ZM29.7692 31.5653C29.8487 30.3771 30.6889 29.3182 32.0312 29.3182C33.304 29.3182 34.1193 30.2727 34.1193 31.5653H29.7692ZM37.0973 36H38.2706V32.7784H39.3246L41.8303 36H43.3416L40.2195 32.0426L43.3018 28.3636H41.7905L39.0462 31.6847H38.2706V28.3636H37.0973V36ZM45.3725 38.8636C46.4315 38.8636 47.1772 38.3018 47.6197 37.1136L50.8711 28.3835L49.5884 28.3636L47.4805 34.4489H47.4009L45.293 28.3636H44.0202L46.8441 36.0398L46.6254 36.6364C46.1978 37.7997 45.6708 37.9091 44.8157 37.6903L44.5174 38.7244C44.6367 38.7841 44.9748 38.8636 45.3725 38.8636ZM62.8439 34.9062H61.7104V28.3636H60.5371V34.9062H57.6536V28.3636H56.4803V34.9062H53.5968V28.3636H52.4235V36H61.4917V38.1875H62.7047L62.8439 34.9062ZM66.7976 36.179C68.13 36.179 68.826 35.4631 69.0646 34.9659H69.1243V36H70.2976V30.9688C70.2976 28.5426 68.4482 28.2642 67.4737 28.2642C66.3203 28.2642 65.0078 28.6619 64.4112 30.054L65.5249 30.4517C65.7834 29.8949 66.3949 29.2983 67.5135 29.2983C68.5923 29.2983 69.1243 29.87 69.1243 30.8494V30.8892C69.1243 31.456 68.5476 31.4062 67.1555 31.5852C65.7386 31.7692 64.1925 32.0824 64.1925 33.8324C64.1925 35.3239 65.3459 36.179 66.7976 36.179ZM66.9766 35.125C66.0419 35.125 65.3658 34.7074 65.3658 33.892C65.3658 32.9972 66.1811 32.7188 67.0959 32.5994C67.593 32.5398 68.9254 32.4006 69.1243 32.1619V33.2358C69.1243 34.1903 68.3686 35.125 66.9766 35.125ZM77.0328 36H78.1465V28.3636H75.0044C73.3588 28.3636 72.3596 29.2237 72.3596 30.6307C72.3596 31.6797 72.8865 32.4254 73.8063 32.7386L71.9419 36H73.2147L74.9846 32.8977H77.0328V36ZM77.0328 31.804H74.8652C74.035 31.804 73.5328 31.3615 73.5328 30.6307C73.5328 29.8899 74.0897 29.4375 75.0044 29.4375H77.0328V31.804ZM87.3402 36.1591C89.0305 36.1591 90.1442 35.125 90.343 33.7727H89.1697C88.951 34.608 88.255 35.1051 87.3402 35.1051C85.9482 35.1051 85.0533 33.9517 85.0533 32.1818C85.0533 30.4517 85.968 29.3182 87.3402 29.3182C88.3743 29.3182 88.9908 29.9545 89.1697 30.6506H90.343C90.1442 29.2188 88.9311 28.2642 87.3203 28.2642C85.2521 28.2642 83.88 29.8949 83.88 32.2216C83.88 34.5085 85.1925 36.1591 87.3402 36.1591ZM91.4567 29.4574H93.9822V36H95.1555V29.4574H97.6612V28.3636H91.4567V29.4574ZM101.223 36.179C102.556 36.179 103.252 35.4631 103.49 34.9659H103.55V36H104.723V30.9688C104.723 28.5426 102.874 28.2642 101.9 28.2642C100.746 28.2642 99.4336 28.6619 98.837 30.054L99.9506 30.4517C100.209 29.8949 100.821 29.2983 101.939 29.2983C103.018 29.2983 103.55 29.87 103.55 30.8494V30.8892C103.55 31.456 102.973 31.4062 101.581 31.5852C100.164 31.7692 98.6183 32.0824 98.6183 33.8324C98.6183 35.3239 99.7717 36.179 101.223 36.179ZM101.402 35.125C100.468 35.125 99.7915 34.7074 99.7915 33.892C99.7915 32.9972 100.607 32.7188 101.522 32.5994C102.019 32.5398 103.351 32.4006 103.55 32.1619V33.2358C103.55 34.1903 102.794 35.125 101.402 35.125ZM106.865 36H110.464C112.015 36 112.95 35.125 112.95 33.9517C112.95 32.7536 112.04 32.1072 111.2 31.983C112.06 31.804 112.672 31.3217 112.672 30.392C112.672 29.174 111.628 28.3636 109.987 28.3636H106.865V36ZM107.979 34.9261V32.5795H110.464C111.27 32.5795 111.757 33.0618 111.757 33.8523C111.757 34.5185 111.27 34.9261 110.464 34.9261H107.979ZM107.979 31.5653V29.4375H109.987C110.927 29.4375 111.498 29.8303 111.498 30.4716C111.498 31.1527 110.927 31.5653 109.987 31.5653H107.979ZM114.726 36H115.9V32.7784H116.953L119.459 36H120.971L117.848 32.0426L120.931 28.3636H119.419L116.675 31.6847H115.9V28.3636H114.726V36ZM124.493 36.179C125.825 36.179 126.521 35.4631 126.76 34.9659H126.82V36H127.993V30.9688C127.993 28.5426 126.143 28.2642 125.169 28.2642C124.016 28.2642 122.703 28.6619 122.107 30.054L123.22 30.4517C123.479 29.8949 124.09 29.2983 125.209 29.2983C126.288 29.2983 126.82 29.87 126.82 30.8494V30.8892C126.82 31.456 126.243 31.4062 124.851 31.5852C123.434 31.7692 121.888 32.0824 121.888 33.8324C121.888 35.3239 123.041 36.179 124.493 36.179ZM124.672 35.125C123.737 35.125 123.061 34.7074 123.061 33.892C123.061 32.9972 123.876 32.7188 124.791 32.5994C125.288 32.5398 126.621 32.4006 126.82 32.1619V33.2358C126.82 34.1903 126.064 35.125 124.672 35.125Z" fill="#808991"/>
<path d="M26.4879 47.9091H24.2315L20.978 49.9993V52.1726L24.0398 50.2166H24.1165V61H26.4879V47.9091ZM39.6012 47.9091H37.3448L34.0913 49.9993V52.1726L37.1531 50.2166H37.2298V61H39.6012V47.9091ZM47.7638 61.2493C50.9215 61.2557 52.8072 58.7628 52.8072 54.4673C52.8072 50.1974 50.9087 47.7301 47.7638 47.7301C44.619 47.7301 42.7269 50.1911 42.7205 54.4673C42.7205 58.7564 44.6062 61.2493 47.7638 61.2493ZM47.7638 59.2486C46.1339 59.2486 45.1112 57.6122 45.1175 54.4673C45.1239 51.348 46.1403 49.7053 47.7638 49.7053C49.3938 49.7053 50.4102 51.348 50.4165 54.4673C50.4165 57.6122 49.4002 59.2486 47.7638 59.2486ZM59.7697 61.2493C62.9274 61.2557 64.813 58.7628 64.813 54.4673C64.813 50.1974 62.9146 47.7301 59.7697 47.7301C56.6248 47.7301 54.7328 50.1911 54.7264 54.4673C54.7264 58.7564 56.612 61.2493 59.7697 61.2493ZM59.7697 59.2486C58.1397 59.2486 57.117 57.6122 57.1234 54.4673C57.1298 51.348 58.1461 49.7053 59.7697 49.7053C61.3997 49.7053 62.416 51.348 62.4224 54.4673C62.4224 57.6122 61.4061 59.2486 59.7697 59.2486ZM73.4119 56.0717C76.4162 56.0717 78.1357 54.4162 78.1357 52.0192C78.1357 49.7053 76.4545 47.9091 73.4119 47.9091H68.4773V54.1222H66.5533V56.0717H68.4773V57.0433H66.5533V58.9929H68.4773V61H70.8423V58.9929H73.7124V57.0433H70.8423V56.0717H73.4119ZM70.8423 54.1222V49.8778H73.4119C75.0036 49.8778 75.7706 50.8111 75.7642 52.0384C75.7706 53.2912 75.0163 54.1222 73.3608 54.1222H70.8423Z" fill="#1C1C27"/>
</svg>
