<svg width="162" height="34" viewBox="0 0 162 34" fill="none" xmlns="http://www.w3.org/2000/svg">
<path d="M60.7822 12.2725H54.0493V20.9998H55.3618V13.3975H59.4697V20.9998H60.7822V12.2725ZM65.4506 21.1319C67.2957 21.1319 68.5017 19.7811 68.5017 17.7569C68.5017 15.72 67.2957 14.3691 65.4506 14.3691C63.6054 14.3691 62.3994 15.72 62.3994 17.7569C62.3994 19.7811 63.6054 21.1319 65.4506 21.1319ZM65.4548 20.0623C64.2488 20.0623 63.6863 19.0098 63.6863 17.7527C63.6863 16.4998 64.2488 15.4345 65.4548 15.4345C66.6523 15.4345 67.2148 16.4998 67.2148 17.7527C67.2148 19.0098 66.6523 20.0623 65.4548 20.0623ZM69.2368 20.9998H70.7496L72.8035 18.2725H73.2297V20.9998H74.5038V18.2725H74.93L76.9711 20.9998H78.4839L75.9612 17.6504L78.4541 14.4544H76.9711L74.947 17.1731H74.5038V14.4544H73.2297V17.1731H72.7737L70.7496 14.4544H69.2666L71.7723 17.6504L69.2368 20.9998ZM81.6725 21.1447C82.7549 21.1447 83.3643 20.595 83.6072 20.1049H83.6583V20.9998H84.9026V16.6532C84.9026 14.7484 83.4026 14.3691 82.3628 14.3691C81.1782 14.3691 80.0873 14.8464 79.6611 16.0396L80.8586 16.3123C81.0461 15.8478 81.5233 15.4004 82.3799 15.4004C83.2023 15.4004 83.6242 15.8308 83.6242 16.5723V16.6021C83.6242 17.0666 83.1469 17.0581 81.9708 17.1944C80.7307 17.3393 79.4608 17.6632 79.4608 19.1504C79.4608 20.4373 80.4282 21.1447 81.6725 21.1447ZM81.9495 20.122C81.2293 20.122 80.7094 19.7981 80.7094 19.1674C80.7094 18.4856 81.3145 18.2427 82.0518 18.1447C82.4651 18.0893 83.4452 17.9785 83.6285 17.7953V18.639C83.6285 19.4146 83.0106 20.122 81.9495 20.122ZM86.0841 20.9998H86.4932C87.9207 20.9998 88.4449 19.943 88.5471 17.7782L88.6494 15.5538H90.7886V20.9998H92.0372V14.4544H87.469L87.354 17.3521C87.273 19.372 87.0429 19.8961 86.3142 19.8961H86.0798L86.0841 20.9998ZM96.4935 21.1319C98.3387 21.1319 99.5447 19.7811 99.5447 17.7569C99.5447 15.72 98.3387 14.3691 96.4935 14.3691C94.6483 14.3691 93.4424 15.72 93.4424 17.7569C93.4424 19.7811 94.6483 21.1319 96.4935 21.1319ZM96.4978 20.0623C95.2918 20.0623 94.7293 19.0098 94.7293 17.7527C94.7293 16.4998 95.2918 15.4345 96.4978 15.4345C97.6952 15.4345 98.2577 16.4998 98.2577 17.7527C98.2577 19.0098 97.6952 20.0623 96.4978 20.0623ZM100.967 20.9998H104.095C105.527 20.9998 106.366 20.2754 106.366 19.2356C106.366 18.264 105.62 17.6674 104.747 17.5652C105.552 17.4117 106.085 16.9686 106.085 16.2015C106.085 15.1277 105.156 14.4544 103.681 14.4544H100.967V20.9998ZM102.164 19.9345V18.1149H104.095C104.725 18.1149 105.105 18.4856 105.105 19.095C105.105 19.6149 104.725 19.9345 104.095 19.9345H102.164ZM102.164 17.1816V15.5325H103.681C104.406 15.5325 104.845 15.835 104.845 16.3379C104.845 16.862 104.41 17.1816 103.694 17.1816H102.164ZM109.669 21.1447C110.751 21.1447 111.36 20.595 111.603 20.1049H111.654V20.9998H112.899V16.6532C112.899 14.7484 111.399 14.3691 110.359 14.3691C109.174 14.3691 108.083 14.8464 107.657 16.0396L108.855 16.3123C109.042 15.8478 109.519 15.4004 110.376 15.4004C111.198 15.4004 111.62 15.8308 111.62 16.5723V16.6021C111.62 17.0666 111.143 17.0581 109.967 17.1944C108.727 17.3393 107.457 17.6632 107.457 19.1504C107.457 20.4373 108.424 21.1447 109.669 21.1447ZM109.946 20.122C109.225 20.122 108.706 19.7981 108.706 19.1674C108.706 18.4856 109.311 18.2427 110.048 18.1447C110.461 18.0893 111.441 17.9785 111.625 17.7953V18.639C111.625 19.4146 111.007 20.122 109.946 20.122ZM113.784 15.5538H115.927V20.9998H117.172V15.5538H119.307V14.4544H113.784V15.5538ZM121.903 16.7044V14.4544H120.654V20.9998H123.514C125.116 20.9998 126.011 20.0708 126.011 18.8393C126.011 17.5822 125.116 16.7044 123.514 16.7044H121.903ZM121.903 17.8038H123.514C124.247 17.8038 124.771 18.247 124.771 18.8777C124.771 19.4742 124.247 19.9004 123.514 19.9004H121.903V17.8038ZM130.197 21.1319C131.744 21.1319 132.745 20.2029 132.886 18.9288H131.646C131.484 19.6362 130.934 20.0538 130.205 20.0538C129.127 20.0538 128.432 19.1546 128.432 17.7271C128.432 16.3251 129.14 15.443 130.205 15.443C131.015 15.443 131.509 15.9544 131.646 16.568H132.886C132.749 15.247 131.671 14.3691 130.184 14.3691C128.339 14.3691 127.146 15.7583 127.146 17.7569C127.146 19.7299 128.296 21.1319 130.197 21.1319ZM138.152 20.9998H139.349V14.4544H136.583C135.075 14.4544 134.154 15.2342 134.154 16.4657C134.154 17.3265 134.606 17.9615 135.386 18.2555L133.856 20.9998H135.16L136.588 18.4387H138.152V20.9998ZM138.152 17.4075H136.498C135.804 17.4075 135.399 17.041 135.403 16.4828C135.399 15.9203 135.838 15.541 136.583 15.541H138.152V17.4075Z" fill="#1E202E"/>
<path fill-rule="evenodd" clip-rule="evenodd" d="M27.3748 7.51433C26.9938 6.82856 26.0076 6.82856 25.6266 7.51433L15.0843 26.4891C14.714 27.1556 15.196 27.9748 15.9585 27.9748H37.0429C37.8054 27.9748 38.2874 27.1556 37.9171 26.4891L27.3748 7.51433ZM27.3848 14.4368H24.7808L25.2148 20.8348H26.9508L27.3848 14.4368ZM25.1168 23.9848C25.3782 24.2274 25.7002 24.3488 26.0828 24.3488C26.4655 24.3488 26.7828 24.2274 27.0348 23.9848C27.2962 23.7328 27.4268 23.4294 27.4268 23.0748C27.4268 22.7201 27.3008 22.4261 27.0488 22.1928C26.7968 21.9501 26.4748 21.8288 26.0828 21.8288C25.6908 21.8288 25.3688 21.9501 25.1168 22.1928C24.8648 22.4261 24.7388 22.7201 24.7388 23.0748C24.7388 23.4294 24.8648 23.7328 25.1168 23.9848Z" fill="#BCC2C7"/>
<rect x="0.25" y="0.25" width="161.5" height="33.5" rx="3.75" stroke="#DDE4E8" stroke-width="0.5"/>
</svg>
