<svg width="162" height="34" viewBox="0 0 162 34" fill="none" xmlns="http://www.w3.org/2000/svg">
<path d="M66.7812 13.2727H60.0483V22H61.3608V14.3977H65.4688V22H66.7812V13.2727ZM71.4496 22.1321C73.2947 22.1321 74.5007 20.7812 74.5007 18.7571C74.5007 16.7202 73.2947 15.3693 71.4496 15.3693C69.6044 15.3693 68.3984 16.7202 68.3984 18.7571C68.3984 20.7812 69.6044 22.1321 71.4496 22.1321ZM71.4538 21.0625C70.2479 21.0625 69.6854 20.0099 69.6854 18.7528C69.6854 17.5 70.2479 16.4347 71.4538 16.4347C72.6513 16.4347 73.2138 17.5 73.2138 18.7528C73.2138 20.0099 72.6513 21.0625 71.4538 21.0625ZM75.2837 23.8878H76.5451V22H81.109V23.8878H82.3533V20.8963H81.3477V15.4545H76.8988L76.6942 17.8963C76.5579 19.5455 76.3576 20.4062 75.8164 20.8963H75.2837V23.8878ZM77.18 20.8963C77.6147 20.2869 77.7766 19.2727 77.9045 17.8963L78.0408 16.5455H80.1033V20.8963H77.18ZM86.4197 22.1321C87.8473 22.1321 88.8572 21.429 89.147 20.3636L87.9411 20.1463C87.7109 20.7642 87.157 21.0795 86.4325 21.0795C85.3416 21.0795 84.6087 20.3722 84.5746 19.1108H89.228V18.6591C89.228 16.294 87.8132 15.3693 86.3303 15.3693C84.5064 15.3693 83.3047 16.7585 83.3047 18.7699C83.3047 20.8026 84.4893 22.1321 86.4197 22.1321ZM84.5788 18.1562C84.63 17.2273 85.3033 16.4219 86.3388 16.4219C87.3274 16.4219 87.9751 17.1548 87.9794 18.1562H84.5788ZM90.1261 22H90.5352C91.9627 22 92.4869 20.9432 92.5891 18.7784L92.6914 16.554H94.8306V22H96.0792V15.4545H91.511L91.396 18.3523C91.315 20.3722 91.0849 20.8963 90.3562 20.8963H90.1218L90.1261 22ZM99.027 20.2145V15.4545H97.7784V22H99.1634L102.036 17.2358V22H103.284V15.4545H101.912L99.027 20.2145ZM104.185 16.554H106.329V22H107.573V16.554H109.708V15.4545H104.185V16.554ZM112.304 17.7045V15.4545H111.056V22H113.915C115.517 22 116.412 21.071 116.412 19.8395C116.412 18.5824 115.517 17.7045 113.915 17.7045H112.304ZM112.304 18.804H113.915C114.648 18.804 115.172 19.2472 115.172 19.8778C115.172 20.4744 114.648 20.9006 113.915 20.9006H112.304V18.804ZM120.598 22.1321C122.145 22.1321 123.146 21.2031 123.287 19.929H122.047C121.885 20.6364 121.335 21.054 120.607 21.054C119.528 21.054 118.834 20.1548 118.834 18.7273C118.834 17.3253 119.541 16.4432 120.607 16.4432C121.416 16.4432 121.911 16.9545 122.047 17.5682H123.287C123.151 16.2472 122.072 15.3693 120.585 15.3693C118.74 15.3693 117.547 16.7585 117.547 18.7571C117.547 20.7301 118.697 22.1321 120.598 22.1321ZM128.553 22H129.75V15.4545H126.985C125.476 15.4545 124.556 16.2344 124.556 17.4659C124.556 18.3267 125.007 18.9616 125.787 19.2557L124.257 22H125.561L126.989 19.4389H128.553V22ZM128.553 18.4077H126.9C126.205 18.4077 125.8 18.0412 125.804 17.483C125.8 16.9205 126.239 16.5412 126.985 16.5412H128.553V18.4077Z" fill="#1C1C27"/>
<path d="M35.4113 17.5C35.4113 17.5717 35.3951 17.639 35.3907 17.7108L42.9148 21.4729C43.5597 20.9271 44.3834 20.5864 45.2936 20.5864C47.3407 20.5864 48.9999 22.2453 48.9999 24.2927C49 26.3411 47.3408 28 45.2937 28C43.2452 28 41.5887 26.3411 41.5887 24.2927C41.5887 24.2185 41.6046 24.1525 41.6092 24.0804L34.085 20.3198C33.4382 20.8633 32.6165 21.2039 31.7062 21.2039C29.6589 21.2039 28 19.5462 28 17.5C28 15.4517 29.6589 13.7927 31.7062 13.7927C32.6165 13.7927 33.4389 14.1345 34.0849 14.6779L41.6091 10.9171C41.6046 10.8453 41.5886 10.778 41.5886 10.7038C41.5887 8.659 43.2452 7 45.2937 7C47.3408 7 49 8.659 49 10.7039C49 12.7526 47.3408 14.4113 45.2937 14.4113C44.3811 14.4113 43.5586 14.0693 42.9148 13.5237L35.3908 17.2871C35.3951 17.3589 35.4113 17.4259 35.4113 17.5Z" fill="#BCC2C7"/>
<rect x="0.25" y="0.25" width="161.5" height="33.5" rx="3.75" stroke="#DDE4E8" stroke-width="0.5"/>
</svg>
