<svg width="20" height="22" viewBox="0 0 20 22" fill="none" xmlns="http://www.w3.org/2000/svg">
<path d="M10.267 21.305C11.4964 21.3097 12.5059 20.3685 12.5103 19.2135L8.03971 19.1966C8.03534 20.3516 9.03763 21.3004 10.267 21.305ZM17.5556 15.0326L17.5774 9.25763C17.5898 6.00265 15.2527 3.36878 12.0143 2.6215L12.0171 1.88651C12.0203 1.04651 11.2407 0.308553 10.3466 0.305165C9.4525 0.301776 8.66737 1.03381 8.66418 1.8738L8.6614 2.6088C5.41746 3.33151 3.06047 5.9476 3.04814 9.20257L3.02625 14.9775L0.783017 17.069L0.779038 18.119L19.7789 18.191L19.7829 17.141L17.5556 15.0326Z" fill="#BCC2C7"/>
</svg>
